<svg width="736" height="24" viewBox="0 0 736 24" fill="none" xmlns="http://www.w3.org/2000/svg">
<path d="M716.784 0C707.142 0 707.142 9.88235 697.567 9.88235C687.992 9.88235 687.925 0 678.35 0C668.776 0 668.709 9.88235 659.134 9.88235C649.492 9.88235 649.492 0 639.85 0C630.209 0 630.209 9.88235 620.634 9.88235C610.992 9.88235 610.992 0 601.417 0C591.776 0 591.776 9.88235 582.201 9.88235C572.626 9.88235 572.358 0 562.783 0C553.142 0 553.142 9.88235 543.567 9.88235C533.992 9.88235 533.858 0 524.283 0C514.642 0 514.642 9.88235 505.067 9.88235C495.425 9.88235 495.425 0 485.783 0C476.142 0 476.142 9.88235 466.567 9.88235C456.925 9.88235 456.925 0 447.35 0C437.776 0 437.642 9.88235 428 9.88235C418.358 9.88235 418.358 0 408.783 0C399.142 0 399.142 9.88235 389.567 9.88235C379.925 9.88235 379.925 0 370.283 0C360.642 0 360.642 9.88235 351.067 9.88235C341.425 9.88235 341.425 0 331.85 0C322.209 0 322.209 9.88235 312.634 9.88235C302.992 9.88235 302.992 0 293.417 0C283.776 0 283.776 9.88235 274.134 9.88235C264.492 9.88235 264.492 0 254.85 0C245.209 0 245.209 9.88235 235.567 9.88235C225.925 9.88235 225.925 0 216.283 0C206.642 0 206.642 9.88235 197 9.88235C187.358 9.88235 187.358 0 177.717 0C168.075 0 168.075 9.88235 158.433 9.88235C148.791 9.88235 148.791 0 139.15 0C129.508 0 129.508 9.88235 119.933 9.88235C110.291 9.88235 110.291 0 100.65 0C91.0078 0 91.0078 9.88235 81.3661 9.88235C71.7243 9.88235 71.7243 0 62.0826 0C52.4409 0 52.4409 9.88235 42.7991 9.88235C33.1574 9.88235 33.1574 0 23.5157 0C14.1417 0 14.1417 9.88235 4.5 9.88235C-5.14174 9.88235 -5.14174 0 -14.7165 0C-24.2913 0 -24.3583 9.88235 -34 9.88235V24H736V9.88235C726.358 9.88235 726.358 0 716.784 0Z" fill="white"/>
</svg>
